<?xml version="1.0" encoding="UTF-8"?>
<svg width="512pt" height="512pt" version="1.1" viewBox="0 0 512 512" xmlns="http://www.w3.org/2000/svg">
 <path d="m362.67 320c0 5.6562-2.25 11.086-6.25 15.086s-9.4258 6.2461-15.086 6.2461h-247.25l27.734 27.52c4.0391 4.0078 6.3125 9.4609 6.3125 15.148s-2.2734 11.141-6.3125 15.148c-4.0039 4.0352-9.457 6.3086-15.145 6.3086-5.6914 0-11.141-2.2734-15.148-6.3086l-64-64c-1.9414-2.0312-3.4648-4.4219-4.4805-7.043-2.1328-5.1914-2.1328-11.02 0-16.211 1.0156-2.6211 2.5391-5.0117 4.4805-7.043l64-64c5.4102-5.4102 13.301-7.5234 20.691-5.543 7.3906 1.9805 13.164 7.7539 15.145 15.148 1.9844 7.3906-0.12891 15.277-5.543 20.691l-27.734 27.52h247.25c5.6602 0 11.086 2.2461 15.086 6.2461s6.25 9.4297 6.25 15.086zm126.29-119.89c2.1328-5.1914 2.1328-11.02 0-16.211-1.0156-2.6211-2.5391-5.0117-4.4805-7.043l-64-64c-5.4102-5.4102-13.301-7.5234-20.691-5.543-7.3906 1.9805-13.164 7.7539-15.145 15.148-1.9844 7.3906 0.12891 15.277 5.543 20.691l27.734 27.52h-247.25c-7.6211 0-14.664 4.0664-18.477 10.664-3.8125 6.6016-3.8125 14.734 0 21.336 3.8125 6.5977 10.855 10.664 18.477 10.664h247.25l-27.734 27.52c-4.0391 4.0078-6.3125 9.4609-6.3125 15.148s2.2734 11.141 6.3125 15.148c4.0039 4.0352 9.457 6.3086 15.145 6.3086 5.6914 0 11.141-2.2734 15.148-6.3086l64-64c1.9414-2.0312 3.4648-4.4219 4.4805-7.043z" fill="#fff"/>
</svg>
