<?xml version="1.0" encoding="UTF-8"?>
<svg width="512pt" height="512pt" version="1.1" viewBox="0 0 512 512" xmlns="http://www.w3.org/2000/svg">
 <path d="m384 448h-16v-93.762c-0.12109-26.641-13.496-51.477-35.68-66.238l-48-32 48-32c22.184-14.762 35.559-39.598 35.68-66.238v-93.762h16c5.7148 0 11-3.0508 13.855-8 2.8594-4.9492 2.8594-11.051 0-16-2.8555-4.9492-8.1406-8-13.855-8h-256c-5.7148 0-11 3.0508-13.855 8-2.8594 4.9492-2.8594 11.051 0 16 2.8555 4.9492 8.1406 8 13.855 8h16v93.762c0.12109 26.641 13.496 51.477 35.68 66.238l48 32-48 32c-22.184 14.762-35.559 39.598-35.68 66.238v93.762h-16c-5.7148 0-11 3.0508-13.855 8-2.8594 4.9492-2.8594 11.051 0 16 2.8555 4.9492 8.1406 8 13.855 8h256c5.7148 0 11-3.0508 13.855-8 2.8594-4.9492 2.8594-11.051 0-16-2.8555-4.9492-8.1406-8-13.855-8zm-208-290.24v-93.762h160v93.762c0.007812 16.082-8.043 31.098-21.441 40l-58.559 39.039-58.559-39.039c-13.398-8.9023-21.449-23.918-21.441-40zm0 290.24v-93.762c-0.007812-16.082 8.043-31.098 21.441-40l58.559-39.039 58.559 39.039c13.398 8.9023 21.449 23.918 21.441 40v93.762z" fill="#fff"/>
</svg>
